<?xml version="1.0" encoding="UTF-8" standalone="no"?>
<!DOCTYPE svg PUBLIC "-//W3C//DTD SVG 1.1//EN" "http://www.w3.org/Graphics/SVG/1.1/DTD/svg11.dtd">
<!-- Created with Vectornator (http://vectornator.io/) -->
<svg height="210.0mm" stroke-miterlimit="10" style="fill-rule:nonzero;clip-rule:evenodd;stroke-linecap:round;stroke-linejoin:round;" version="1.1" viewBox="193 41 146 146" width="297.0mm" xml:space="preserve" xmlns="http://www.w3.org/2000/svg" xmlns:xlink="http://www.w3.org/1999/xlink">
<defs/>
<g id="Layer-2">
<g opacity="1">
<path d="M265.443 55.4721C261.475 55.5652 257.675 56.9975 253.763 57.502C251.372 57.8102 249.002 57.093 246.585 57.5129C245.377 57.7229 244.257 58.5155 243.217 59.1172C242.397 59.5911 241.571 59.9535 240.678 60.274C237.548 61.3964 234.385 62.1974 231.441 63.8099C229.996 64.6018 229.098 66.0365 227.738 66.9311C226.167 67.9644 224.447 68.7289 223.056 70.0304C222.252 70.7834 221.613 71.6086 221.085 72.566C220.697 73.2685 220.403 74.0121 219.873 74.6249C218.998 75.6372 217.896 76.4251 216.999 77.4187C216.387 78.0981 215.889 78.875 215.428 79.6669C215.393 79.7155 215.363 79.7671 215.333 79.8196C215.29 79.8964 215.242 79.9713 215.21 80.0561C210.219 91.5059 208.206 104.295 209.091 116.739C209.607 123.989 211.112 131.229 214.155 137.86C214.741 139.139 215.348 140.42 216.181 141.56C217.155 142.893 218.375 144.034 219.28 145.419C220.922 147.93 222.01 150.63 224.097 152.862C228.525 157.599 234.144 161.197 239.826 164.237C242.341 165.583 244.945 167.034 247.637 167.995C248.958 168.467 250.357 168.508 251.704 168.861C253.109 169.229 254.456 169.861 255.847 170.287C258.699 171.16 261.65 171.738 264.639 171.778C265.842 171.795 267.086 171.777 268.266 171.517C269.847 171.168 271.292 170.411 272.886 170.098C275.197 169.644 277.574 169.71 279.882 169.29C281.105 169.068 282.13 168.369 283.312 168.046C284.384 167.753 285.531 167.901 286.622 167.966C288.577 168.083 290.583 168.153 292.392 167.275C294.822 166.096 296.153 163.713 297.736 161.655C298.715 160.382 299.957 159.3 301.09 158.17C302.824 156.44 304.581 154.739 306.456 153.16C307.681 152.128 309.037 151.265 310.151 150.101C311.332 148.87 311.831 147.326 312.869 146.023C314.215 144.333 315.684 142.884 316.641 140.908C318.369 137.343 318.751 133.411 319.748 129.624C320.488 126.814 321.93 124.204 322.283 121.297C322.945 115.854 321.905 110.317 321.585 104.884C321.195 98.2647 320.656 91.4814 316.998 85.7456C313.957 80.9781 309.919 77.1864 305.866 73.3044C304.218 71.7261 302.926 69.8606 301.181 68.368C297.862 65.5298 293.99 63.6092 290.14 61.6163C288.902 60.9752 287.86 60.0501 286.535 59.561C283.163 58.3165 279.469 58.3294 275.993 57.5348C272.469 56.7291 269.123 55.3858 265.443 55.4721ZM265.101 59.9793C268.405 59.899 271.481 61.2177 274.647 61.9401C277.737 62.6452 280.97 62.709 284.018 63.5989C285.47 64.0228 286.551 64.9927 287.874 65.6833C290.824 67.2239 293.817 68.6573 296.517 70.627C297.603 71.4192 298.665 72.276 299.591 73.2535C300.67 74.3926 301.592 75.6587 302.727 76.7494C307.177 81.0282 312.088 85.3051 314.662 91.0603C316.896 96.054 316.967 101.575 317.318 106.935C317.627 111.656 318.505 116.465 317.954 121.199C317.784 122.661 317.182 124.005 316.667 125.368C316.084 126.911 315.631 128.493 315.266 130.101C314.571 133.171 314.148 136.373 312.774 139.239C312 140.855 310.677 142.013 309.591 143.408C308.688 144.568 308.226 146.035 307.209 147.104C305.804 148.579 303.963 149.696 302.443 151.051C300.518 152.766 298.709 154.604 296.892 156.431C295.283 158.049 294.025 159.727 292.65 161.527C292.222 162.087 291.496 163.147 290.711 163.313C288.312 163.823 285.897 163.096 283.483 163.503C282.086 163.738 280.916 164.6 279.554 164.852C276.982 165.328 274.339 165.224 271.773 165.823C270.402 166.144 269.139 166.803 267.772 167.111C266.925 167.302 266.003 167.284 265.142 167.271C262.532 167.234 259.955 166.717 257.466 165.954C256.022 165.512 254.632 164.866 253.173 164.481C251.944 164.157 250.626 164.145 249.423 163.717C246.911 162.823 244.474 161.443 242.129 160.189C236.807 157.341 231.534 153.991 227.378 149.563C225.456 147.516 224.488 144.952 222.969 142.64C221.581 140.527 219.744 138.909 218.618 136.623C215.455 130.2 213.948 123.063 213.442 115.957C212.614 104.341 214.467 92.3854 219.106 81.6858C220.097 79.9665 221.725 78.9082 223.002 77.4151C224.107 76.1219 224.56 74.3919 225.799 73.2244C226.95 72.1407 228.509 71.5213 229.815 70.6525C230.5 70.1971 231.116 69.6921 231.703 69.1174C232.129 68.7007 232.605 68.0453 233.151 67.7532C235.889 66.2878 238.821 65.5582 241.722 64.5156C243.16 63.9986 244.446 63.3392 245.763 62.5767C246.068 62.4003 246.377 62.2264 246.691 62.0674C246.763 62.0311 246.897 61.9848 246.956 61.9546C249.261 61.7176 251.552 62.2605 253.854 61.9728C257.61 61.5032 261.298 60.0719 265.101 59.9793Z" fill="#000000" stroke="none"/>
</g>
<g opacity="0.997768">
<path d="M226.431 83.2042C223.491 84.2359 223.311 88.8545 221.275 91.2042C220.054 92.6131 218.305 93.4456 217.186 94.9375C216.235 96.2061 213.193 99.3331 213.453 100.982C213.643 102.189 214.564 103.178 214.875 104.36C215.559 106.957 216.179 109.574 216.831 112.182C217.12 113.338 217.18 116.265 218.075 117.16C218.883 117.968 220.553 117.657 221.453 117.515C225.614 116.858 229.635 113.977 233.542 112.537C234.176 112.304 236.283 112.138 236.742 111.471C237.466 110.417 237.393 107.088 237.808 105.782C239.135 101.612 239.586 97.192 239.586 92.8042C239.586 92.2709 239.789 91.6974 239.586 91.2042C238.558 88.7069 234.877 88.2525 232.831 87.1153C230.28 85.6986 229.336 82.1844 226.431 83.2042Z" fill="#000000" fill-rule="nonzero" stroke="none"/>
<path d="M227.306 80.8141C226.89 80.8401 226.464 80.9174 226.027 81.0448C225.752 81.0962 225.503 81.2089 225.288 81.3675C223.135 82.5032 222.087 84.6008 221.186 86.8243C220.832 87.7004 220.517 88.6401 219.99 89.4336C219.296 90.4786 218.116 91.14 217.186 91.942C215.471 93.4201 213.379 96.0252 212.258 97.942C211.802 98.721 211.399 99.5712 211.286 100.478C211.075 102.183 212.04 103.369 212.654 104.833C213.029 105.727 213.191 106.795 213.427 107.731C213.876 109.518 214.426 111.326 214.754 113.139C215.096 115.027 215.05 117.112 216.325 118.681C218.104 120.872 222.299 119.756 224.536 118.979C226.899 118.157 229.104 116.954 231.347 115.86C232.245 115.423 233.156 115.042 234.076 114.656C235.947 114.558 238.113 113.675 238.888 111.892C239.589 110.279 239.511 108.436 239.783 106.733C239.989 105.436 240.498 104.17 240.774 102.882C241.339 100.244 241.624 97.552 241.725 94.8575C241.794 93.0139 242.185 90.8439 241.115 89.223C239.985 87.5109 238.033 86.6887 236.183 85.9974C235.39 85.701 234.522 85.4553 233.808 84.9865C232.616 84.2043 231.866 82.91 230.778 82.0066C229.711 81.1215 228.555 80.7364 227.306 80.8141ZM227.11 85.3129C227.717 85.2853 228.102 85.8574 228.57 86.368C229.397 87.2688 230.193 88.2018 231.23 88.8714C231.992 89.3632 232.837 89.692 233.682 90.0096C234.313 90.247 234.953 90.4678 235.571 90.7382C236.083 90.9616 236.546 91.2117 236.995 91.5437C237.165 91.6702 237.32 91.8416 237.438 92.0176C237.448 92.0328 237.46 92.0643 237.471 92.0907C237.47 92.1395 237.469 92.1934 237.466 92.2231C237.453 92.3386 237.436 92.4538 237.427 92.5697C237.416 92.7112 237.41 92.8526 237.407 92.9945C237.392 93.71 237.396 94.426 237.369 95.1412C237.344 95.806 237.3 96.5728 237.248 97.2361C237.166 98.2702 237.048 99.303 236.89 100.328C236.511 102.777 235.623 105.108 235.342 107.565C235.262 108.265 235.212 108.971 235.099 109.667C235.085 109.749 235.064 109.847 235.046 109.942C234.997 109.955 234.948 109.968 234.898 109.98C234.787 110.007 234.447 110.075 234.35 110.095C233.483 110.268 232.756 110.522 231.927 110.867C228.948 112.11 226.178 113.896 223.087 114.867C222.222 115.139 221.313 115.345 220.407 115.42C220.232 115.435 219.998 115.451 219.804 115.434C219.77 115.431 219.712 115.411 219.662 115.395C219.605 115.252 219.564 115.102 219.529 114.951C219.465 114.682 219.419 114.408 219.37 114.136C219.262 113.537 219.208 112.929 219.118 112.327C218.807 110.263 218.165 108.215 217.657 106.192C217.301 104.778 217.023 103.339 216.366 102.027C216.13 101.556 215.907 101.012 215.651 100.549C215.676 100.483 215.707 100.395 215.728 100.352C215.79 100.229 215.854 100.107 215.925 99.9878C216.013 99.8391 216.108 99.6937 216.205 99.5504C216.736 98.7661 217.349 98.0389 217.956 97.313C218.384 96.8008 218.782 96.2342 219.246 95.755C220.64 94.3157 222.37 93.435 223.51 91.7176C224.387 90.3949 224.899 88.8741 225.505 87.4192C225.819 86.6642 226.175 85.7178 226.952 85.3419C227.005 85.3313 227.06 85.3152 227.11 85.3129Z" fill="#000000" stroke="none"/>
</g>
<g opacity="1">
<path d="M270.608 65.6932C269.511 69.4459 269.458 74.1995 268.03 77.8709C267.809 78.4396 267.605 79.0739 267.141 79.4709C266.715 79.8368 265.462 79.4477 265.541 80.0043C265.632 80.6361 266.783 80.3686 267.319 80.7154C267.719 80.9737 269.563 83.0555 269.808 83.382C270.479 84.2765 270.854 85.3815 271.586 86.2265C273.207 88.0974 275.806 88.9772 277.63 90.6709C278.637 91.6055 279.803 93.7941 281.186 94.2264C284.652 95.3097 288.736 90.2463 291.675 89.0709C293.578 88.3096 299.411 88.4415 300.03 86.7598C300.376 85.8209 299.796 83.3861 299.675 82.4931C299.286 79.6453 299.408 72.5823 297.541 70.4043C296.312 68.97 295.726 69.9594 294.341 68.9821C293.758 68.5706 293.482 67.8202 292.919 67.3821C291.769 66.4872 290.811 66.4945 289.541 65.9599C283.98 63.6183 281.846 63.7136 276.03 64.0044C274.904 64.0607 273.676 63.3525 272.653 63.8266C271.815 64.2146 270.867 64.8075 270.608 65.6932Z" fill="#000000" fill-rule="nonzero" stroke="none"/>
<path d="M273.612 61.4813C273.129 61.4695 272.632 61.5256 272.086 61.7224C270.661 62.2359 269.526 63.2793 268.823 64.586C268.668 64.7959 268.557 65.0369 268.508 65.3044C267.773 68.0688 267.492 70.8958 266.954 73.6978C266.777 74.6176 266.562 75.5139 266.274 76.404C266.161 76.7528 266.047 77.1012 265.923 77.446C265.895 77.4496 265.866 77.448 265.838 77.4535C265.416 77.5372 265.08 77.627 264.721 77.8458C263.653 78.4964 262.922 80.1361 263.625 81.3379C264.046 82.0566 264.637 82.4629 265.434 82.6447C265.623 82.6877 265.908 82.7239 266.097 82.7472C267.315 83.9092 268.195 85.1867 269.056 86.6278C270.72 89.4103 273.765 90.451 276.139 92.4637C276.565 92.8248 276.888 93.372 277.232 93.8055C278.421 95.3018 279.76 96.5523 281.769 96.6292C286.069 96.7936 288.817 92.7749 292.369 91.1231C292.964 90.8462 293.974 90.8272 294.613 90.7408C297.181 90.393 300.934 90.2279 302.058 87.3712C302.901 85.2274 301.845 82.5715 301.685 80.3683C301.437 76.9332 301.575 72.9382 299.906 69.8135C299.352 68.7756 298.465 67.8326 297.321 67.4609C296.737 67.2711 296.152 67.3495 295.623 67.0348C295.494 66.9579 295.013 66.1753 294.814 65.9666C294.448 65.5842 294.02 65.2724 293.563 65.0083C292.602 64.4526 291.517 64.2515 290.496 63.8451C288.516 63.0575 286.546 62.294 284.439 61.9186C282.583 61.5879 280.698 61.5723 278.819 61.6337C277.973 61.6614 276.9 61.7982 276.063 61.7537C275.18 61.7067 274.416 61.5009 273.612 61.4813ZM273.397 65.9529C274.051 65.9414 274.926 66.2332 275.431 66.2552C277.775 66.3575 280.091 65.987 282.442 66.2365C284.593 66.4646 286.595 67.2883 288.587 68.0743C289.473 68.424 290.51 68.5644 291.316 69.0988C292.02 69.566 292.318 70.4455 293.06 70.9292C293.793 71.407 294.091 71.5138 294.926 71.6888C295.64 71.8384 295.678 71.594 296.031 72.2748C296.546 73.268 296.711 74.4629 296.862 75.5507C297.094 77.2352 297.185 78.9354 297.3 80.6307C297.386 81.8998 297.537 83.1309 297.747 84.3851C297.821 84.8221 297.892 85.2632 297.931 85.7057C295.893 86.4164 293.552 86.1524 291.495 86.8289C289.239 87.5711 287.42 89.3265 285.52 90.6808C284.811 91.1855 282.772 92.6296 281.843 91.9689C280.731 91.1788 280.152 89.7686 279.121 88.8779C277.41 87.3985 275.211 86.5396 273.59 84.9648C272.868 84.2628 272.518 83.3217 271.987 82.4836C271.492 81.7004 270.559 80.4581 269.601 79.5575C269.782 79.202 269.939 78.8271 270.077 78.4343C271.465 74.4822 271.615 70.2894 272.663 66.2602C272.807 66.039 273.075 65.9585 273.397 65.9529Z" fill="#000000" stroke="none"/>
</g>
<g opacity="1">
<path d="M255.142 130.048C252.921 133.917 254.519 138.988 254.519 143.471C254.519 144.49 254.248 147.571 254.875 148.448C256.069 150.12 259.242 149.373 260.919 149.693C262.946 150.079 262.258 150.313 264.119 151.293C266.612 152.605 273.732 154.666 276.386 153.782C278.341 153.13 277.872 152.748 279.23 151.293C280.721 149.695 282.769 148.683 284.03 146.848C285.034 145.389 285.646 143.727 286.875 142.404C287.928 141.27 289.562 140.041 290.964 139.382C291.472 139.142 292.184 139.263 292.564 138.848C294.209 137.053 290.514 133.645 289.541 132.448C287.738 130.229 286.012 127.387 283.852 125.515C282.542 124.379 280.782 123.701 279.408 122.671C278.939 122.319 278.713 121.632 278.164 121.426C277.661 121.238 277.099 121.634 276.564 121.604C273.184 121.416 271.506 122.991 268.564 124.626C266.941 125.528 265.305 125.415 263.586 126.048C260.603 127.147 256.72 127.299 255.142 130.048Z" fill="#000000" fill-rule="nonzero" stroke="none"/>
<path d="M278.203 119.115C277.715 119.087 277.146 119.161 276.765 119.357C276.578 119.453 275.735 119.343 275.434 119.366C274.397 119.444 273.381 119.688 272.414 120.07C270.4 120.866 268.707 122.533 266.609 123.074C265.782 123.287 264.929 123.386 264.102 123.605C263.023 123.892 261.976 124.285 260.895 124.571C258 125.337 255.19 126.228 253.462 128.798C253.454 128.808 253.448 128.82 253.44 128.83C253.41 128.874 253.378 128.915 253.349 128.961C253.341 128.974 253.338 128.989 253.331 129.003C253.305 129.045 253.273 129.081 253.251 129.126C250.805 133.772 252.251 138.765 252.338 143.737C252.377 145.939 251.84 148.435 253.375 150.276C255.114 152.362 258.064 151.548 260.38 151.922C261.172 152.05 261.386 152.362 262.095 152.812C262.787 153.252 263.518 153.608 264.275 153.92C267.609 155.291 272.103 156.642 275.679 156.182C276.954 156.018 278.354 155.487 279.286 154.573C279.937 153.935 280.348 153.111 281.011 152.478C282.238 151.306 283.708 150.425 284.858 149.162C286.325 147.55 287.009 145.444 288.429 143.813C289.017 143.138 289.808 142.56 290.549 142.07C290.884 141.848 291.242 141.663 291.596 141.472C291.616 141.471 291.662 141.451 291.685 141.447C291.789 141.431 291.893 141.417 291.996 141.396C292.167 141.36 292.343 141.333 292.509 141.276C292.765 141.188 293.025 141.1 293.257 140.961C293.806 140.631 294.184 140.25 294.528 139.719C296.887 136.074 292.362 132.388 290.415 129.802C289.481 128.562 288.596 127.282 287.604 126.086C286.719 125.02 286.405 124.702 285.396 123.771C284.428 122.878 283.219 122.279 282.09 121.624C281.901 121.514 280.894 120.937 280.824 120.816C280.363 120.014 279.554 119.381 278.654 119.176C278.52 119.145 278.366 119.124 278.203 119.115ZM277.207 123.743C277.342 123.906 277.496 124.066 277.557 124.128C278.906 125.502 280.913 125.963 282.309 127.26C284.728 129.509 286.353 132.393 288.551 134.833C289.142 135.489 289.717 136.147 290.228 136.868C290.314 136.99 290.396 137.119 290.472 137.25C290.088 137.396 289.769 137.566 289.352 137.803C288.033 138.55 286.782 139.501 285.714 140.581C284.03 142.283 283.381 144.555 281.829 146.251C281.051 147.102 280.059 147.749 279.175 148.482C278.138 149.343 277.24 150.309 276.475 151.418C274.986 151.914 273.57 151.708 272.01 151.405C269.813 150.979 267.558 150.358 265.529 149.396C264.723 149.014 264.103 148.379 263.307 147.995C261.83 147.283 260.148 147.372 258.557 147.343C258.124 147.335 257.673 147.327 257.248 147.235C257.074 147.197 256.99 147.179 256.863 147.12C256.829 147.104 256.772 147.058 256.732 147.028C256.701 146.876 256.686 146.721 256.674 146.567C256.644 146.148 256.639 145.724 256.644 145.304C256.657 144.199 256.722 143.11 256.67 142.003C256.505 138.509 255.278 134.353 256.997 131.045C257.812 129.837 259.442 129.496 260.767 129.139C262.113 128.777 263.432 128.319 264.776 127.961C265.593 127.744 266.44 127.651 267.259 127.437C269.606 126.825 271.389 125.143 273.607 124.256C274.791 123.782 276.001 123.943 277.207 123.743Z" fill="#000000" stroke="none"/>
</g>
<g opacity="1">
<path d="M317.452 103.293C316.919 103.589 314.932 104.553 314.608 105.249C314.382 105.732 314.724 106.328 314.608 106.849C314.364 107.946 313.885 108.978 313.541 110.049C312.123 114.46 311.596 118.993 310.875 123.56C310.607 125.252 309.721 126.817 309.63 128.537C309.564 129.79 312.309 135.881 313.363 136.182C314.932 136.63 316.124 133.382 316.563 132.448C318.262 128.84 318.519 124.788 318.519 120.893" fill="#000000" fill-rule="nonzero" stroke="none"/>
<path d="M317.358 101.174C317.102 101.166 316.845 101.212 316.6 101.318C314.953 102.209 313.151 103.058 312.472 104.946C312.278 105.486 312.321 106.145 312.428 106.712C311.882 107.953 311.491 109.426 311.118 110.715C310.131 114.129 309.606 117.646 309.07 121.152C308.925 122.104 308.84 123.087 308.594 124.021C308.195 125.538 307.578 126.96 307.459 128.547C307.301 130.66 309.006 133.868 310.002 135.627C310.417 136.36 310.889 137.18 311.532 137.746C312.144 138.285 312.891 138.533 313.705 138.467C316.099 138.275 317.394 135.763 318.249 133.843C318.49 133.303 318.745 132.759 318.963 132.212C319.25 131.493 319.47 130.828 319.677 130.082C319.879 129.359 320.03 128.684 320.164 127.945C320.355 126.895 320.481 125.833 320.563 124.77C320.668 123.407 320.69 122.043 320.698 120.678C320.591 119.596 319.53 118.816 318.326 118.934C317.122 119.053 316.232 120.026 316.339 121.108C316.329 122.969 316.284 124.83 316.022 126.675C315.757 128.533 315.232 130.251 314.473 131.963C314.29 132.375 314.11 132.794 313.902 133.197C313.756 132.947 313.621 132.704 313.441 132.354C312.986 131.463 312.574 130.546 312.223 129.61C312.107 129.302 311.997 128.99 311.905 128.674C311.881 128.593 311.853 128.418 311.832 128.319C311.886 127.966 311.929 127.609 312.026 127.265C312.216 126.591 312.464 125.934 312.661 125.261C313.243 123.283 313.399 121.18 313.722 119.15C314.237 115.922 314.811 112.673 315.946 109.597C316.329 108.559 316.787 107.483 316.816 106.362C316.818 106.277 316.814 106.19 316.807 106.104C317.292 105.802 317.801 105.541 318.305 105.268C319.285 104.846 319.699 103.618 319.228 102.527C318.875 101.708 318.124 101.199 317.358 101.174Z" fill="#000000" stroke="none"/>
</g>
<g opacity="1">
<path d="M220.297 141.515C223.033 135.559 229.792 145.244 232.831 148.093C233.902 149.098 236.393 150.141 237.097 151.471C237.615 152.448 238.457 155.447 238.519 156.626C238.799 161.935 230.758 155.389 229.453 153.782C227.952 151.935 225.984 150.742 224.475 148.982C222.742 146.96 219.206 143.89 220.297 141.515Z" fill="#000000" fill-rule="nonzero" stroke="none"/>
<path d="M222.737 137.366C221.647 137.387 220.57 137.812 219.583 138.842C219.12 139.325 218.779 139.882 218.473 140.469C218.392 140.596 218.325 140.733 218.279 140.882C217.244 143.714 218.866 146.185 220.697 148.278C221.654 149.373 222.638 150.495 223.669 151.52C224.629 152.474 225.712 153.292 226.69 154.225C227.269 154.777 227.751 155.41 228.317 155.974C229.491 157.143 230.823 158.185 232.21 159.089C234.676 160.696 238.715 162.389 240.334 158.65C241.091 156.902 240.552 154.915 240.086 153.172C239.71 151.769 239.271 150.252 238.252 149.17C236.899 147.733 234.996 147.036 233.633 145.599C231.75 143.613 230.031 141.465 227.928 139.697C226.404 138.416 224.553 137.331 222.737 137.366ZM222.557 141.837C222.673 141.807 222.851 141.916 223.268 142.123C223.684 142.33 224.073 142.597 224.442 142.878C225.873 143.973 227.108 145.322 228.314 146.653C229.395 147.845 230.428 149.171 231.689 150.184C232.719 151.011 234.069 151.525 234.985 152.484C235.507 153.03 235.997 154.727 236.216 156.025C235.894 155.871 235.582 155.694 235.278 155.511C234.293 154.917 233.367 154.221 232.49 153.477C231.513 152.649 230.743 151.657 229.819 150.775C228.86 149.859 227.795 149.059 226.854 148.124C225.884 147.159 224.963 146.103 224.061 145.074C223.613 144.562 222.124 142.876 222.303 142.203C222.401 141.996 222.467 141.859 222.557 141.837Z" fill="#000000" stroke="none"/>
</g>
<g opacity="1">
<path d="M233.659 64.0198C233.006 64.0353 232.401 64.3492 232.076 64.9137C230.206 68.0195 228.844 71.357 227.166 74.5611C226.286 76.2409 224.813 77.8721 224.201 79.6324C222.977 83.1509 223.468 86.9803 223.021 90.6143C222.582 94.1798 221.412 97.6224 220.834 101.165C220.641 102.349 220.476 103.557 220.458 104.757C220.431 106.536 220.673 108.301 220.525 110.079C220.367 111.991 219.417 113.788 219.184 115.707C218.778 119.052 219.193 122.417 218.696 125.763C218.124 129.611 216.978 134.023 218.442 137.809C219.08 139.462 220.503 140.403 221.458 141.832C221.917 142.519 222.109 143.338 222.503 144.061C222.934 144.85 223.456 145.568 224.105 146.193C225.659 147.69 227.757 148.394 229.34 149.849C231.922 152.222 234.4 154.51 237.778 155.702C239.665 156.368 241.866 156.832 243.878 156.744C247.228 156.596 251.381 155.038 254.381 153.698C256.307 152.838 258.572 151.765 259.314 149.63C259.748 148.381 259.289 146.589 259.179 145.35C258.855 141.702 258.501 138.047 257.51 134.506C256.756 131.813 255.548 129.03 253.375 127.174C252.256 126.22 250.722 125.837 249.667 124.84C247.912 123.182 246.557 121.207 244.702 119.633C241.948 117.298 238.972 115.244 237.508 111.816C236.617 109.729 236.497 107.105 236.392 104.873C236.283 102.545 236.026 99.6917 236.826 97.4156C237.357 95.9071 238.759 94.7887 239.865 93.7111C240.367 93.2217 240.848 92.7302 241.251 92.1546C241.365 91.9923 241.537 91.544 241.721 91.4246C243.217 90.4511 244.816 89.5394 246.39 88.6977C247.134 88.2995 247.909 87.8959 248.728 87.6686C249.53 87.446 250.272 87.4555 251.059 87.0512C252.308 86.4101 253.226 85.4773 254.22 84.5204C256.435 82.3877 260.278 82.1291 263.17 81.9445C263.667 81.9128 264.157 81.9619 264.646 82.0088C265.48 82.9084 266.998 82.9104 268.135 82.4333C268.36 82.3391 268.621 82.4251 268.865 82.4269C269.786 82.4337 269.779 82.4667 270.727 82.4333C272.877 82.3575 275.108 81.462 277.2 82.295C278.859 82.9555 278.399 85.4311 278.567 86.8003C278.899 89.4987 280.066 92.0074 280.471 94.6887C280.954 97.896 280.069 100.72 279.262 103.802C278.446 106.916 277.859 110.086 277.435 113.276C276.699 118.81 276.656 124.347 276.631 129.921C276.62 132.482 276.485 135.046 276.502 137.606C276.509 138.593 276.589 139.578 276.564 140.565C276.523 142.113 275.917 143.324 275.506 144.781C275.076 146.302 274.891 147.938 274.85 149.515C274.713 154.677 276.974 159.593 280.667 163.165C282.177 164.627 284.121 166.085 286.275 166.32C289.325 166.653 291.911 164.701 293.675 162.423C294.619 161.203 295.39 159.842 296.427 158.696C297.335 157.692 298.611 157.193 299.778 156.563C300.748 156.04 301.674 155.482 302.525 154.776C304.113 153.455 304.705 151.507 305.94 149.926C305.958 149.902 306.177 149.686 306.248 149.608C306.37 149.563 306.493 149.524 306.609 149.466C306.869 149.335 307.126 149.196 307.368 149.032C307.942 148.643 308.509 148.16 308.985 147.649C309.73 146.851 310.075 145.862 310.673 144.971C312.131 142.799 313.807 140.876 314.481 138.279C314.908 136.633 315.151 133.531 314.455 132.014C314.146 131.34 313.356 130.587 312.664 130.133C312.681 130.111 312.695 130.086 312.712 130.065C312.828 129.927 312.957 129.803 313.092 129.683C313.51 129.308 313.974 128.988 314.407 128.631C315.6 127.648 316.607 126.404 316.394 124.75C316.32 124.169 315.973 123.652 315.561 123.258C315.43 123.131 315.254 123.002 315.101 122.894C315.116 122.739 315.127 122.583 315.163 122.431C315.311 121.798 315.893 121.201 316.163 120.627C316.533 119.838 316.74 118.994 316.899 118.141C317.187 116.596 317.185 114.996 317.52 113.462C317.909 111.68 318.69 110.128 318.558 108.23C318.33 104.927 316.072 102.357 314.304 99.7471C312.515 97.1056 311.434 94.1175 309.403 91.6144C308.108 90.0189 306.252 89.0326 304.669 87.7715C303.903 87.1605 303.346 86.3269 302.553 85.7456C301.684 85.1078 300.705 84.8616 299.656 84.7069C298.549 84.4515 297.419 85.2432 297.135 86.4756C296.851 87.7079 297.52 88.915 298.627 89.1704C300.218 89.3953 300.574 90.4619 301.791 91.4375C303.127 92.5079 304.851 93.3483 305.946 94.7047C307.888 97.1096 308.927 100.024 310.648 102.571C311.95 104.497 314.004 106.579 314.211 109.021C314.294 110.01 313.823 110.969 313.542 111.896C313.284 112.746 313.141 113.587 313.034 114.469C312.865 115.856 312.84 117.382 312.387 118.723C312.187 119.316 311.771 119.817 311.484 120.37C311.007 121.288 310.756 122.304 310.715 123.338C310.679 124.25 310.889 125.016 311.339 125.663C311.229 125.748 311.119 125.834 311.011 125.92C310.074 126.67 309.201 127.547 308.68 128.644C307.948 130.183 307.971 131.873 309.101 133.227C309.41 133.597 309.85 133.889 310.23 134.188C310.286 134.233 310.333 134.278 310.384 134.32C310.366 134.784 310.487 135.614 310.487 135.992C310.487 136.1 310.506 136.185 310.493 136.272C310.101 139.021 308.647 140.449 307.165 142.681C306.721 143.349 306.471 144.253 305.882 144.813C305.105 145.551 304.08 145.818 303.312 146.595C302.565 147.351 301.971 148.213 301.444 149.135C301.046 149.831 300.681 150.834 300.026 151.364C298.635 152.487 296.932 153.065 295.45 154.042C294.325 154.784 293.433 155.686 292.604 156.74C291.513 158.127 289.533 162.122 287.176 161.837C285.439 161.628 283.82 159.849 282.773 158.586C279.895 155.114 278.707 151.159 279.461 146.691C279.654 145.549 280.124 144.541 280.448 143.437C280.755 142.393 280.886 141.329 280.921 140.243C280.954 139.2 280.871 138.16 280.863 137.118C280.845 134.576 280.98 132.03 280.992 129.487C281.017 123.777 281.061 118.102 281.886 112.44C282.272 109.789 282.785 107.153 283.465 104.561C284.651 100.035 285.538 96.6286 284.458 91.9359C284.023 90.0446 283.328 88.2164 282.976 86.3051C282.395 83.1529 283.05 80.0682 279.651 78.3107C276.763 76.8179 274.029 77.8318 271.023 77.9312C270.432 77.9508 269.842 77.9284 269.251 77.9216C268.442 77.2002 267.296 77.2471 266.308 77.5614C265.658 77.4209 264.907 77.3731 264.254 77.3974C262.354 77.4681 260.437 77.6557 258.574 78.0373C256.545 78.4532 254.53 79.1227 252.786 80.2659C251.538 81.0844 250.689 82.338 249.393 83.0829C249.122 83.2392 248.575 83.1817 248.239 83.263C247.453 83.4533 246.688 83.7677 245.959 84.1055C244.338 84.8572 242.824 85.821 241.286 86.7264C240.664 87.0929 239.984 87.4189 239.412 87.8616C238.438 88.6151 237.924 89.7331 237.051 90.5821C234.948 92.6285 232.969 94.6682 232.369 97.6568C231.852 100.233 231.912 102.936 232.035 105.542C232.227 109.643 232.809 113.833 235.318 117.215C237.297 119.883 240.071 121.689 242.499 123.894C243.711 124.995 244.653 126.334 245.772 127.522C246.425 128.214 247.082 128.808 247.898 129.297C248.729 129.795 249.655 130.135 250.4 130.77C251.306 131.542 251.939 132.609 252.426 133.68C253.957 137.045 254.351 140.913 254.69 144.546C254.794 145.661 254.901 146.781 254.992 147.897C255.009 148.105 255.016 148.312 255.027 148.521C254.668 148.744 254.186 149.017 254.137 149.042C253.186 149.515 252.733 149.725 251.728 150.119C249.781 150.883 247.765 151.527 245.721 151.978C245.175 152.098 244.557 152.273 243.991 152.241C241.089 152.081 238.378 151.244 236.006 149.518C234.697 148.566 233.601 147.419 232.408 146.337C230.834 144.912 228.766 144.199 227.24 142.748C226.047 141.615 225.808 139.844 224.796 138.562C224.089 137.666 222.94 136.874 222.516 135.78C222.143 134.818 222.141 133.672 222.159 132.657C222.213 129.697 223.031 126.82 223.272 123.878C223.492 121.195 223.195 118.485 223.513 115.81C223.748 113.83 224.696 112.011 224.87 110.018C225.059 107.852 224.611 105.663 224.863 103.51C225.236 100.334 226.062 97.2618 226.729 94.142C227.234 91.7795 227.525 89.4462 227.616 87.0287C227.695 84.928 227.652 82.7574 228.304 80.7322C228.514 80.0828 229.095 79.5318 229.468 78.9796C230.024 78.1578 230.497 77.2623 230.957 76.3844C232.587 73.273 233.899 70.0212 235.717 67.0072C236.236 66.104 235.844 64.9031 234.839 64.3253C234.462 64.1086 234.05 64.0104 233.659 64.0198ZM255.41 148.238C255.412 148.24 255.389 148.254 255.388 148.257C255.389 148.255 255.39 148.253 255.391 148.251C255.394 148.244 255.405 148.232 255.41 148.238Z" fill="#000000" stroke="none"/>
</g>
<g opacity="1">
<path d="M307.853 128.358C307.66 128.363 307.467 128.398 307.278 128.468C304.711 129.707 302.278 131.217 299.685 132.398C297.449 133.417 295.056 134.033 292.797 135C291.769 135.325 291.23 136.516 291.592 137.66C291.954 138.803 293.08 139.467 294.108 139.141C296.399 138.158 298.82 137.528 301.091 136.496C303.72 135.3 306.182 133.772 308.782 132.517C309.787 132.144 310.264 130.935 309.849 129.817C309.512 128.909 308.689 128.34 307.853 128.358Z" fill="#000000" stroke="none"/>
</g>
</g>
</svg>
